<?xml version="1.0" encoding="UTF-8" standalone="no"?>
<!-- Created with Inkscape (http://www.inkscape.org/) -->
<svg
   xmlns:a="http://ns.adobe.com/AdobeSVGViewerExtensions/3.0/"
   xmlns:svg="http://www.w3.org/2000/svg"
   xmlns="http://www.w3.org/2000/svg"
   xmlns:xlink="http://www.w3.org/1999/xlink"
   version="1.0"
   width="400"
   height="320"
   viewBox="0 0 400 320"
   id="svg2608"
   xml:space="preserve"><defs
   id="defs2789"><linearGradient
     x1="26"
     y1="216"
     x2="222"
     y2="216"
     id="linearGradient2998"
     xlink:href="#SVGID_1_"
     gradientUnits="userSpaceOnUse"
     gradientTransform="matrix(1,0,0,-1,0,320)" /><linearGradient
     x1="238.71001"
     y1="263.3428"
     x2="273.71011"
     y2="287.67639"
     id="linearGradient3000"
     xlink:href="#SVGID_2_"
     gradientUnits="userSpaceOnUse"
     gradientTransform="matrix(1,0,0,-1,0,320)" /><linearGradient
     x1="253.00391"
     y1="277.52441"
     x2="259.75391"
     y2="277.52441"
     id="linearGradient3002"
     xlink:href="#SVGID_3_"
     gradientUnits="userSpaceOnUse"
     gradientTransform="matrix(0.8805,-0.4741,-0.4741,-0.8805,162.2281,410.4667)" /><linearGradient
     x1="239.0439"
     y1="211.6758"
     x2="274.0441"
     y2="236.0094"
     id="linearGradient3004"
     xlink:href="#SVGID_4_"
     gradientUnits="userSpaceOnUse"
     gradientTransform="matrix(1,0,0,-1,0,320)" /><linearGradient
     x1="253.21091"
     y1="224.86909"
     x2="259.96179"
     y2="224.86909"
     id="linearGradient3006"
     xlink:href="#SVGID_5_"
     gradientUnits="userSpaceOnUse"
     gradientTransform="matrix(0.9668,-0.2554,-0.2554,-0.9668,66.0736,379.1345)" /><linearGradient
     x1="123.8247"
     y1="145.83299"
     x2="123.8247"
     y2="286.1665"
     id="linearGradient3008"
     xlink:href="#SVGID_6_"
     gradientUnits="userSpaceOnUse"
     gradientTransform="matrix(1,0,0,-1,0,320)" /></defs>















<g
   transform="matrix(1.3285356,0,0,1.3285356,-64.971836,-44.401297)"
   id="g2837"><g
     transform="translate(50,44.117647)"
     id="Layer_14">
	<rect
   width="222.66701"
   height="17.333"
   x="31.167"
   y="196.16701"
   id="rect2613"
   style="fill:#42474a" />
</g><g
     transform="translate(50,44.117647)"
     id="Layer_2">
	<path
   d="M 291,184 C 291,191.18 285.18,197 278,197 L 22,197 C 14.82,197 9,191.18 9,184 L 9,20.5 C 9,13.32 14.82,7.5 22,7.5 L 278,7.5 C 285.18,7.5 291,13.32 291,20.5 L 291,184 z"
   id="path2616"
   style="fill:#c0c3c4" />
</g><g
     transform="translate(50,44.117647)"
     id="Layer_3">
	<path
   d="M 284,181.5 C 284,187.022 279.522,191.5 274,191.5 L 24,191.5 C 18.477,191.5 14,187.022 14,181.5 L 14,23.5 C 14,17.977 18.477,13.5 24,13.5 L 274,13.5 C 279.522,13.5 284,17.977 284,23.5 L 284,181.5 z"
   id="path2619"
   style="fill:#42474a" />
</g><g
     transform="translate(50,44.117647)"
     id="Layer_3_copy">
	<path
   d="M 281,179.744 C 281,185.143 276.622,189.522 271.223,189.522 L 26.778,189.522 C 21.378,189.522 17,185.143 17,179.744 L 17,25.255 C 17,19.855 21.377,15.477 26.778,15.477 L 271.223,15.477 C 276.622,15.477 281,19.855 281,25.255 L 281,179.744 L 281,179.744 z"
   id="path2622"
   style="fill:#bfc3c6" />
</g><g
     transform="translate(50,44.117647)"
     id="Layer_3_copy_2">
	<path
   d="M 282.414,187.522 L 29.587,187.522 C 24.311,187.522 20.034,183.245 20.034,177.967 L 20.034,27.031 C 20.034,21.755 24.311,17.478 29.587,17.478 L 282.414,17.478 L 282.414,187.522 z"
   id="path2625"
   style="fill:#42474a" />
</g><g
     transform="translate(50,44.117647)"
     id="Layer_3_copy_3">
	<path
   d="M 229.691,176.638 C 229.691,181.822 225.489,186.024 220.306,186.024 L 31.694,186.024 C 26.51,186.024 22.309,181.822 22.309,176.638 L 22.309,28.362 C 22.309,23.179 26.51,18.977 31.694,18.977 L 220.308,18.977 C 225.491,18.977 229.693,23.179 229.693,28.362 L 229.691,176.638 L 229.691,176.638 z"
   id="path2628"
   style="fill:#c0c3c4" />
</g><g
     transform="translate(50,44.117647)"
     id="Layer_7">
	
		<linearGradient
   x1="26"
   y1="216"
   x2="222"
   y2="216"
   id="SVGID_1_"
   gradientUnits="userSpaceOnUse"
   gradientTransform="matrix(1,0,0,-1,0,320)">
		<stop
   id="stop2632"
   style="stop-color:#e7edf3;stop-opacity:1"
   offset="0" />
		<stop
   id="stop2634"
   style="stop-color:#95999d;stop-opacity:1"
   offset="1" />
		<a:midPointStop
   offset="0"
   style="stop-color:#E7EDF3" />
		<a:midPointStop
   offset="0.5"
   style="stop-color:#E7EDF3" />
		<a:midPointStop
   offset="1"
   style="stop-color:#95999D" />
	</linearGradient>
	<path
   d="M 222,177.5 C 222,180.813 219.313,183.5 216,183.5 L 32,183.5 C 28.687,183.5 26,180.813 26,177.5 L 26,30.5 C 26,27.187 28.687,24.5 32,24.5 L 216,24.5 C 219.313,24.5 222,27.187 222,30.5 L 222,177.5 z"
   id="path2636"
   style="fill:url(#linearGradient2998)" />
</g><g
     transform="translate(50,44.117647)"
     id="Layer_8">
	<path
   d="M 219.167,103.833 C 219.167,136.833 217.001,160.867 217.001,160.867 C 215.501,172.117 209.839,176.305 190.5,177.867 C 159.5,180.367 121,179.617 121,179.617 C 121,179.617 87,180.451 56,177.951 C 36.662,176.389 31,172.201 29.5,160.951 C 29.5,160.951 28.333,137.284 28.5,104.167 C 28.667,71.05 31,47 31,47 C 32.5,35.75 38.162,31.56 57.5,30 C 88.5,27.5 122.5,28.333 122.5,28.333 C 122.5,28.333 161,27.583 192,30.083 C 211.339,31.643 217.001,35.833 218.501,47.083 C 218.501,47.083 219.167,70.833 219.167,103.833 z"
   id="path2639"
   style="fill:#343535" />
</g><g
     transform="translate(50,44.117647)"
     id="Layer_11">
	
		<linearGradient
   x1="238.71001"
   y1="263.3428"
   x2="273.71011"
   y2="287.67639"
   id="SVGID_2_"
   gradientUnits="userSpaceOnUse"
   gradientTransform="matrix(1,0,0,-1,0,320)">
		<stop
   id="stop2643"
   style="stop-color:#545454;stop-opacity:1"
   offset="0" />
		<stop
   id="stop2645"
   style="stop-color:#ffffff;stop-opacity:1"
   offset="0.45100001" />
		<stop
   id="stop2647"
   style="stop-color:#ffffff;stop-opacity:1"
   offset="0.54900002" />
		<stop
   id="stop2649"
   style="stop-color:#545454;stop-opacity:1"
   offset="1" />
		<a:midPointStop
   offset="0"
   style="stop-color:#545454" />
		<a:midPointStop
   offset="0.5"
   style="stop-color:#545454" />
		<a:midPointStop
   offset="0.451"
   style="stop-color:#FFFFFF" />
		<a:midPointStop
   offset="0.5"
   style="stop-color:#FFFFFF" />
		<a:midPointStop
   offset="0.549"
   style="stop-color:#FFFFFF" />
		<a:midPointStop
   offset="0.5"
   style="stop-color:#FFFFFF" />
		<a:midPointStop
   offset="1"
   style="stop-color:#545454" />
	</linearGradient>
	<circle
   cx="256.375"
   cy="44.375"
   r="22.875"
   id="circle2651"
   style="fill:url(#linearGradient3000)" />
	<circle
   cx="256.375"
   cy="44.375"
   r="14.875"
   id="circle2653"
   style="fill:#37383a" />
	
		<linearGradient
   x1="253.00391"
   y1="277.52441"
   x2="259.75391"
   y2="277.52441"
   id="SVGID_3_"
   gradientUnits="userSpaceOnUse"
   gradientTransform="matrix(0.8805,-0.4741,-0.4741,-0.8805,162.2281,410.4667)">
		<stop
   id="stop2656"
   style="stop-color:#95999d;stop-opacity:1"
   offset="0" />
		<stop
   id="stop2658"
   style="stop-color:#cccccc;stop-opacity:1"
   offset="0.49509999" />
		<stop
   id="stop2660"
   style="stop-color:#95999d;stop-opacity:1"
   offset="1" />
		<a:midPointStop
   offset="0"
   style="stop-color:#95999D" />
		<a:midPointStop
   offset="0.5"
   style="stop-color:#95999D" />
		<a:midPointStop
   offset="0.4951"
   style="stop-color:#CCCCCC" />
		<a:midPointStop
   offset="0.5"
   style="stop-color:#CCCCCC" />
		<a:midPointStop
   offset="1"
   style="stop-color:#95999D" />
	</linearGradient>
	<polygon
   points="265.847,53.948 259.243,57.504 247.153,35.052 253.757,31.496 265.847,53.948 "
   id="polygon2662"
   style="fill:url(#linearGradient3002)" />
</g><g
     transform="translate(50,44.117647)"
     id="Layer_11_copy">
	
		<linearGradient
   x1="239.0439"
   y1="211.6758"
   x2="274.0441"
   y2="236.0094"
   id="SVGID_4_"
   gradientUnits="userSpaceOnUse"
   gradientTransform="matrix(1,0,0,-1,0,320)">
		<stop
   id="stop2666"
   style="stop-color:#545454;stop-opacity:1"
   offset="0" />
		<stop
   id="stop2668"
   style="stop-color:#ffffff;stop-opacity:1"
   offset="0.45100001" />
		<stop
   id="stop2670"
   style="stop-color:#ffffff;stop-opacity:1"
   offset="0.54900002" />
		<stop
   id="stop2672"
   style="stop-color:#545454;stop-opacity:1"
   offset="1" />
		<a:midPointStop
   offset="0"
   style="stop-color:#545454" />
		<a:midPointStop
   offset="0.5"
   style="stop-color:#545454" />
		<a:midPointStop
   offset="0.451"
   style="stop-color:#FFFFFF" />
		<a:midPointStop
   offset="0.5"
   style="stop-color:#FFFFFF" />
		<a:midPointStop
   offset="0.549"
   style="stop-color:#FFFFFF" />
		<a:midPointStop
   offset="0.5"
   style="stop-color:#FFFFFF" />
		<a:midPointStop
   offset="1"
   style="stop-color:#545454" />
	</linearGradient>
	<circle
   cx="256.70901"
   cy="96.042"
   r="22.875"
   id="circle2674"
   style="fill:url(#linearGradient3004)" />
	<circle
   cx="256.70901"
   cy="96.042"
   r="14.875"
   id="circle2676"
   style="fill:#37383a" />
	
		<linearGradient
   x1="253.21091"
   y1="224.86909"
   x2="259.96179"
   y2="224.86909"
   id="SVGID_5_"
   gradientUnits="userSpaceOnUse"
   gradientTransform="matrix(0.9668,-0.2554,-0.2554,-0.9668,66.0736,379.1345)">
		<stop
   id="stop2679"
   style="stop-color:#95999d;stop-opacity:1"
   offset="0" />
		<stop
   id="stop2681"
   style="stop-color:#cccccc;stop-opacity:1"
   offset="0.49509999" />
		<stop
   id="stop2683"
   style="stop-color:#95999d;stop-opacity:1"
   offset="1" />
		<a:midPointStop
   offset="0"
   style="stop-color:#95999D" />
		<a:midPointStop
   offset="0.5"
   style="stop-color:#95999D" />
		<a:midPointStop
   offset="0.4951"
   style="stop-color:#CCCCCC" />
		<a:midPointStop
   offset="0.5"
   style="stop-color:#CCCCCC" />
		<a:midPointStop
   offset="1"
   style="stop-color:#95999D" />
	</linearGradient>
	<polygon
   points="263.716,107.537 256.464,109.452 249.952,84.797 257.204,82.882 263.716,107.537 "
   id="polygon2685"
   style="fill:url(#linearGradient3006)" />
</g><g
     transform="translate(50,44.117647)"
     id="Layer_12">
	<circle
   cx="256.375"
   cy="44.375"
   r="18.625"
   id="circle2688"
   style="fill:none;stroke:#b2b2b2;stroke-dasharray:3, 2, 4, 2" />
	<circle
   cx="256.54199"
   cy="96.208"
   r="18.625"
   id="circle2690"
   style="fill:none;stroke:#b2b2b2;stroke-dasharray:3, 1, 4, 1" />
</g><g
     transform="translate(50,44.117647)"
     id="Layer_8_copy">
	
		<linearGradient
   x1="123.8247"
   y1="145.83299"
   x2="123.8247"
   y2="286.1665"
   id="SVGID_6_"
   gradientUnits="userSpaceOnUse"
   gradientTransform="matrix(1,0,0,-1,0,320)">
		<stop
   id="stop2694"
   style="stop-color:#e7edf3;stop-opacity:1"
   offset="0" />
		<stop
   id="stop2696"
   style="stop-color:#ffffff;stop-opacity:1"
   offset="1" />
		<a:midPointStop
   offset="0"
   style="stop-color:#E7EDF3" />
		<a:midPointStop
   offset="0.5"
   style="stop-color:#E7EDF3" />
		<a:midPointStop
   offset="1"
   style="stop-color:#FFFFFF" />
	</linearGradient>
	<path
   d="M 216.5,103.837 C 216.5,135.914 214.395,159.275 214.395,159.275 C 212.938,170.21 207.433,174.282 188.635,175.799 C 158.502,178.231 121.079,177.5 121.079,177.5 C 121.079,177.5 88.03,178.311 57.897,175.881 C 39.1,174.364 33.596,170.292 32.138,159.356 C 32.138,159.356 31.004,136.352 31.166,104.161 C 31.328,71.97 33.596,48.593 33.596,48.593 C 35.054,37.658 40.558,33.585 59.355,32.069 C 89.488,29.639 122.537,30.449 122.537,30.449 C 122.537,30.449 159.96,29.72 190.093,32.15 C 208.891,33.666 214.395,37.739 215.853,48.674 C 215.853,48.675 216.5,71.761 216.5,103.837 z"
   id="path2698"
   style="fill:url(#linearGradient3008)" />
</g></g></svg>